<svg width="44" height="44" viewBox="0 0 44 44" fill="none" xmlns="http://www.w3.org/2000/svg">
<g clip-path="url(#clip0_318_4732)">
<path d="M22 44C34.1503 44 44 34.1503 44 22C44 9.84974 34.1503 0 22 0C9.84974 0 0 9.84974 0 22C0 34.1503 9.84974 44 22 44Z" fill="#C9CFEC"/>
<path d="M16 29.6632V26.3494H19.4834V29.6632H16ZM16 21.5628V18.249H19.4834V21.5628H16Z" fill="black"/>
<path d="M20.7812 33C21.377 32.3403 21.9423 31.6192 22.477 30.8368C23.0118 30.0544 23.493 29.2106 23.9208 28.3054C24.3486 27.3849 24.6847 26.4031 24.9291 25.3598C25.1736 24.3013 25.2958 23.1813 25.2958 22C25.2958 20.8187 25.1736 19.7064 24.9291 18.6632C24.6847 17.6046 24.3486 16.6227 23.9208 15.7176C23.493 14.7971 23.0118 13.9456 22.477 13.1632C21.9423 12.3808 21.377 11.6597 20.7812 11H23.5312C24.4173 11.8745 25.1965 12.8794 25.8687 14.0146C26.541 15.1499 27.0604 16.3849 27.4271 17.7197C27.809 19.0544 28 20.4812 28 22C28 23.5035 27.809 24.9303 27.4271 26.2803C27.0604 27.6151 26.541 28.8424 25.8687 29.9623C25.1965 31.0976 24.4173 32.1102 23.5312 33H20.7812Z" fill="black"/>
</g>
<defs>
<clipPath id="clip0_318_4732">
<rect width="44" height="44" fill="white"/>
</clipPath>
</defs>
</svg>
