<svg width="24" height="24" viewBox="0 0 24 24" fill="none" xmlns="http://www.w3.org/2000/svg">
<path d="M14.7286 18.2324L14.7281 18.2329C14.2047 18.6463 13.7221 19.0216 13.2525 19.296C12.7827 19.5706 12.3731 19.7152 12 19.7152C11.627 19.7152 11.2175 19.5705 10.7475 19.2958C10.2778 19.0212 9.79514 18.6462 9.27148 18.2335C8.98456 18.0073 8.69091 17.7809 8.39426 17.5522C7.13929 16.5847 5.83068 15.5758 4.75159 14.3608C3.43455 12.8779 2.5 11.1277 2.5 8.85223C2.5 6.60777 3.76857 4.71259 5.52036 3.91185C7.24062 3.12552 9.51768 3.35788 11.6397 5.56293L12 5.93729L12.3603 5.56293C14.4823 3.35794 16.7593 3.12602 18.4796 3.91269C20.2314 4.7138 21.5 6.60929 21.5 8.85323C21.5 11.1282 20.5657 12.8784 19.2488 14.3612C18.1679 15.5782 16.8565 16.5884 15.5992 17.5569C15.3048 17.7836 15.0134 18.0081 14.7286 18.2324Z" stroke="black"/>
</svg>
