<svg width="24" height="24" viewBox="0 0 24 24" fill="none" xmlns="http://www.w3.org/2000/svg">
<path fill-rule="evenodd" clip-rule="evenodd" d="M12 13.0605L16.2427 17.3032C16.3842 17.4399 16.5736 17.5155 16.7703 17.5137C16.9669 17.512 17.155 17.4332 17.2941 17.2941C17.4332 17.155 17.512 16.9669 17.5137 16.7703C17.5155 16.5736 17.4399 16.3842 17.3032 16.2427L13.0605 12L17.3032 7.75724C17.4399 7.61579 17.5155 7.42634 17.5137 7.22969C17.512 7.03304 17.4332 6.84493 17.2941 6.70588C17.155 6.56682 16.9669 6.48794 16.7703 6.48623C16.5736 6.48453 16.3842 6.56012 16.2427 6.69674L12 10.9395L7.75724 6.69674C7.61515 6.5635 7.4268 6.49076 7.23204 6.49393C7.03728 6.49709 6.85138 6.5759 6.7137 6.71369C6.57601 6.85147 6.49733 7.03742 6.4943 7.23218C6.49128 7.42695 6.56415 7.61525 6.69749 7.75724L10.9395 12L6.69674 16.2427C6.62511 16.3119 6.56797 16.3947 6.52866 16.4862C6.48936 16.5777 6.46867 16.6761 6.4678 16.7757C6.46694 16.8753 6.48591 16.974 6.52362 17.0662C6.56133 17.1584 6.61702 17.2421 6.68744 17.3125C6.75786 17.383 6.8416 17.4386 6.93377 17.4764C7.02595 17.5141 7.12471 17.533 7.22429 17.5322C7.32387 17.5313 7.42229 17.5106 7.51379 17.4713C7.6053 17.432 7.68805 17.3749 7.75724 17.3032L12 13.0605Z" fill="black"/>
</svg>
