<svg width="24" height="24" viewBox="0 0 24 24" fill="none" xmlns="http://www.w3.org/2000/svg">
<g clip-path="url(#clip0_47_2018)">
<path fill-rule="evenodd" clip-rule="evenodd" d="M12.9334 15.9919C12.7459 16.1794 12.4916 16.2847 12.2264 16.2847C11.9613 16.2847 11.7069 16.1794 11.5194 15.9919L5.86242 10.3349C5.76691 10.2426 5.69072 10.1323 5.63832 10.0103C5.58591 9.88829 5.55832 9.75707 5.55717 9.62429C5.55601 9.49151 5.58131 9.35983 5.6316 9.23694C5.68188 9.11404 5.75613 9.00239 5.85002 8.90849C5.94392 8.8146 6.05557 8.74035 6.17846 8.69007C6.30136 8.63979 6.43304 8.61448 6.56582 8.61564C6.6986 8.61679 6.82982 8.64438 6.95182 8.69679C7.07383 8.7492 7.18417 8.82538 7.27642 8.92089L12.2264 13.8709L17.1764 8.92089C17.365 8.73873 17.6176 8.63794 17.8798 8.64021C18.142 8.64249 18.3928 8.74766 18.5782 8.93307C18.7636 9.11848 18.8688 9.36929 18.8711 9.63149C18.8734 9.89368 18.7726 10.1463 18.5904 10.3349L12.9334 15.9919Z" fill="black"/>
</g>
<defs>
<clipPath id="clip0_47_2018">
<rect width="24" height="24" fill="white"/>
</clipPath>
</defs>
</svg>
